# xmcd
#
# Track frame offsets:
#	150
#	16487
#	36675
#	52312
#	74865
#	90537
#	111660
#	136275
#	155475
#	173795
#
# Disc length: 2614 seconds
#
# Revision: 1
# Processed by: cddbd v1.5.1PL0 Copyright (c) Steve Scherf et al.
# Submitted via: CDex 1.50Beta5
#
DISCID=9c0a340a
DTITLE=米光美保 - MIHO from Tokyo Performance Doll
DYEAR=1993
DGENRE=Pop
TTITLE0=夜空にくちづけ
TTITLE1=雨の日 晴れの日
TTITLE2=Friend
TTITLE3=わがままジェラシー
TTITLE4=Don’t Stop City Light
TTITLE5=Last Kiss
TTITLE6=Radio
TTITLE7=夢
TTITLE8=街路樹の向こう側
TTITLE9=夕なぎの手のひら
EXTD=
EXTT0=
EXTT1=
EXTT2=
EXTT3=
EXTT4=
EXTT5=
EXTT6=
EXTT7=
EXTT8=
EXTT9=
PLAYORDER=
